<svg xmlns="http://www.w3.org/2000/svg" viewBox="0 0 64 64">
  <defs>
    <linearGradient id="bg" x1="8" y1="4" x2="56" y2="60">
      <stop stop-color="#ffffff"/>
      <stop offset="1" stop-color="#e8eef5"/>
    </linearGradient>
    <linearGradient id="drive" x1="18" y1="17" x2="46" y2="50">
      <stop stop-color="#f8fafc"/>
      <stop offset="1" stop-color="#9aa7b6"/>
    </linearGradient>
  </defs>
  <rect width="64" height="64" rx="15" fill="url(#bg)"/>
  <rect x="15" y="17" width="34" height="30" rx="5" fill="url(#drive)" stroke="#768394" stroke-width="1.5"/>
  <path d="M15 36h34v8a5 5 0 0 1-5 5H20a5 5 0 0 1-5-5v-8Z" fill="#475569"/>
  <path d="M22 29a10 10 0 1 0 20 0 10 10 0 0 0-20 0Z" fill="none" stroke="#1d7cf2" stroke-width="7"/>
  <path d="M32 19a10 10 0 0 1 10 10" fill="none" stroke="#9be7f0" stroke-width="7"/>
  <path d="M38 36l8-4 8 4v9c0 5-3.5 9.5-8 11-4.5-1.5-8-6-8-11v-9Z" fill="#37b24d" stroke="#f8fafc" stroke-width="2"/>
  <path d="M42 44l3 3 6-7" fill="none" stroke="#ffffff" stroke-width="3" stroke-linecap="round" stroke-linejoin="round"/>
</svg>
